<svg xmlns="http://www.w3.org/2000/svg" version="1.1" viewBox="0.00 0.00 500.00 500.00" width="500.00" height="500.00">
<path fill="#000000" d="&#10;  M 249.91 104.94&#10;  Q 256.00 104.94 258.50 105.13&#10;  Q 274.56 106.35 290.50 110.94&#10;  Q 321.56 119.88 345.40 141.03&#10;  C 386.63 177.62 404.17 232.47 390.37 286.21&#10;  Q 379.08 330.20 343.85 360.58&#10;  Q 341.12 362.93 338.49 364.74&#10;  A 1.68 1.68 0.0 0 1 336.39 364.59&#10;  Q 299.83 330.52 259.92 292.84&#10;  Q 255.80 288.96 249.97 288.96&#10;  Q 244.13 288.96 240.02 292.85&#10;  Q 200.13 330.55 163.59 364.65&#10;  A 1.68 1.68 0.0 0 1 161.49 364.80&#10;  Q 158.86 362.99 156.13 360.64&#10;  Q 120.88 330.28 109.56 286.30&#10;  C 95.73 232.57 113.23 177.71 154.44 141.09&#10;  Q 178.27 119.93 209.32 110.97&#10;  Q 225.26 106.37 241.32 105.14&#10;  Q 243.82 104.95 249.91 104.94&#10;  Z"/>
</svg>